<svg width="299" height="206" viewBox="0 0 299 206" fill="none" xmlns="http://www.w3.org/2000/svg">
<path d="M218.677 135.398C220.424 133.9 222.171 132.403 223.917 130.906L229.033 126.289C232.465 123.232 235.834 120.112 239.203 116.993C245.941 110.754 252.617 104.515 259.23 98.2758L261.726 95.905C262.474 95.1563 263.286 94.4077 264.034 93.5966C265.532 92.0368 267.029 90.4147 268.464 88.7926C269.899 87.1704 271.209 85.4859 272.457 83.739C273.705 82.0544 274.89 80.3075 276.013 78.4982C278.197 74.942 280.006 71.1986 281.379 67.3928C282.751 63.587 283.562 59.6564 283.937 55.7883C284.623 47.9895 283.063 40.1284 279.507 33.2655C277.76 29.8341 275.576 26.6522 272.956 23.9694C271.646 22.5968 270.273 21.4114 268.838 20.4132C268.152 19.9141 267.403 19.4149 266.717 18.9782L266.467 18.8534H266.405C266.343 18.7911 266.467 18.9158 266.467 18.8534L266.343 18.7911L266.155 18.6663L265.469 18.2919C265.095 18.1048 264.72 17.9176 264.284 17.668C257.608 14.4238 249.934 12.9888 242.135 13.9246C238.205 14.4238 234.274 15.422 230.406 17.1065C226.538 18.791 222.794 21.1619 219.051 24.1566L218.49 24.5933L218.365 24.1566C215.308 21.5362 212.188 19.3526 208.944 17.6057C205.7 15.8587 202.331 14.6733 198.961 13.8623C192.161 12.3025 185.298 12.5521 178.997 14.4238C175.877 15.3596 172.82 16.6698 170.075 18.2919C167.579 19.7893 165.021 21.9106 162.838 24.4061C158.47 29.335 155.226 35.5116 153.604 42.1249C152.793 45.4316 152.356 48.8006 152.294 52.232C152.231 55.6635 152.606 59.0949 153.354 62.5264C154.103 65.9578 155.226 69.3269 156.661 72.6336C158.096 75.9402 159.843 79.1221 161.839 82.2416C163.836 85.3611 166.082 88.3558 168.515 91.2257C169.763 92.6607 171.011 94.0957 172.321 95.4683C173.631 96.9033 174.941 98.2134 176.376 99.6484C181.929 105.201 187.419 110.816 192.91 116.494C186.047 112.501 179.433 108.196 172.945 103.704C166.394 99.2117 160.03 93.9085 154.665 87.5448C151.982 84.3629 149.549 80.9314 147.427 77.2504C145.306 73.5694 143.559 69.5764 142.249 65.4587C141.001 61.2786 140.19 56.9737 139.878 52.544C139.629 48.1143 139.941 43.6846 140.814 39.3173C142.623 30.5827 146.492 22.2849 152.419 15.422C155.413 11.9906 158.845 8.87106 163.087 6.43786C167.143 4.19182 171.448 2.56968 175.94 1.69622C184.861 -0.11309 194.345 1.1971 202.206 5.19006C210.067 9.18301 216.306 15.9835 218.989 23.7199H218.302C221.11 14.4238 229.158 6.43786 239.016 2.69446C243.945 0.760373 249.373 -0.113097 254.8 0.0116828C260.228 0.198853 265.594 1.38427 270.648 3.56792C271.271 3.81748 271.895 4.12942 272.582 4.44137L273.393 4.87811L274.391 5.37722C275.701 6.06351 276.887 6.87459 278.01 7.68566C280.318 9.37018 282.314 11.2419 284.186 13.176C287.93 17.1689 290.924 21.5986 293.233 26.4026C295.541 31.2067 297.101 36.3226 297.974 41.5634C298.785 46.8041 298.785 52.1697 298.099 57.348C297.413 62.5264 295.915 67.58 293.857 72.3216C292.858 74.6924 291.673 76.9385 290.425 79.1221C289.115 81.3058 287.742 83.427 286.307 85.4235C284.81 87.42 283.25 89.354 281.628 91.2257C280.006 93.0351 278.259 94.782 276.512 96.4665C274.765 98.151 272.956 99.7732 271.084 101.271C270.148 102.019 269.213 102.768 268.214 103.517L265.407 105.575C257.982 111.066 250.433 116.369 242.634 121.422C234.96 126.538 227.037 131.405 218.677 135.398Z" fill="#541E50"/>
<path fill-rule="evenodd" clip-rule="evenodd" d="M105.439 138.58C127.65 142.76 199.835 161.726 206.76 127.287C168.952 136.958 125.404 100.272 78.237 104.827C39.5552 108.57 17.4068 128.473 0 158.17C54.9655 163.972 106.25 217.628 180.993 202.467C241.075 190.239 277.011 152.68 292.172 122.795C230.032 155.924 164.709 174.142 105.439 138.58Z" fill="#C9D454"/>
</svg>
